<?xml version="1.0" encoding="UTF-8"?>
<svg version="1.1" xmlns="http://www.w3.org/2000/svg" width="32" height="32">
<path d="M0 0 C10.56 0 21.12 0 32 0 C32 10.56 32 21.12 32 32 C21.44 32 10.88 32 0 32 C0 21.44 0 10.88 0 0 Z " fill="#FBFBFE" transform="translate(0,0)"/>
<path d="M0 0 C2.536875 -0.061875 5.07375 -0.12375 7.6875 -0.1875 C8.47729248 -0.21481201 9.26708496 -0.24212402 10.08081055 -0.27026367 C14.61664547 -0.32359945 17.40152322 0.21935885 21 3 C23.72567966 6.50444528 23.50715363 10.75463329 23 15 C21.70463305 19.03849697 20.68369752 20.55411031 17.125 22.875 C11.68616884 24.88372598 5.68374361 24.17578588 0 24 C0 16.08 0 8.16 0 0 Z " fill="#0B2FCE" transform="translate(5,4)"/>
<path d="M0 0 C1.98 0 3.96 0 6 0 C7.87643761 1.87643761 7.17984987 4.49805701 7.23046875 6.9921875 C7 9 7 9 5 12 C3.35 12 1.7 12 0 12 C0 8.04 0 4.08 0 0 Z " fill="#F4F6FC" transform="translate(13,10)"/>
</svg>
